<svg width="128" height="36" viewBox="0 0 128 36" fill="none" xmlns="http://www.w3.org/2000/svg">
<g clip-path="url(#clip0)">
<path d="M76.5896 36V10.2861C76.5884 8.93414 76.3202 7.59567 75.8002 6.34709C75.2802 5.09851 74.5187 3.96427 73.559 3.00912C72.5994 2.05397 71.4604 1.29662 70.2072 0.780318C68.9539 0.264013 67.611 -0.00113795 66.2549 3.67083e-06H15.5019C6.94039 3.67083e-06 0 6.90703 0 15.4291C0 23.9499 6.94039 30.8569 15.5019 30.8569H68.8398C70.3715 30.8563 71.8691 31.3081 73.1433 32.1554C74.4176 33.0028 75.4115 34.2075 75.9994 35.6176C76.0492 35.7321 76.1318 35.8294 76.2368 35.8974C76.3417 35.9654 76.4644 36.001 76.5896 36Z" fill="#E4002B"/>
<path d="M15.1607 10.3034C13.816 10.3034 12.7588 10.7776 11.9893 11.7261C11.2198 12.6745 10.8343 13.9825 10.8326 15.6501C10.8326 17.3979 11.2028 18.72 11.9433 19.6163C12.6837 20.5125 13.7558 20.9607 15.1595 20.9607C15.7519 20.9624 16.3428 20.9021 16.9226 20.7807C17.4903 20.6607 18.081 20.5063 18.6944 20.3176V22.315C17.5713 22.7371 16.2983 22.9481 14.8756 22.9481C12.7812 22.9481 11.1725 22.3163 10.0494 21.0525C8.9263 19.7888 8.36475 17.9814 8.36475 15.6302C8.36475 14.1488 8.63743 12.8528 9.1828 11.7422C9.69137 10.6702 10.517 9.77906 11.5486 9.18868C12.5795 8.59778 13.7902 8.30234 15.1806 8.30234C16.5851 8.28921 17.9733 8.6029 19.2348 9.21847L18.3918 11.1575C17.8948 10.9249 17.3833 10.7246 16.8603 10.5579C16.3104 10.3859 15.737 10.3 15.1607 10.3034V10.3034Z" fill="white"/>
<path d="M27.7426 22.7532L27.2832 21.2524H27.2047C26.6818 21.9095 26.1563 22.3564 25.6284 22.5931C25.1005 22.8298 24.4215 22.9481 23.5914 22.9481C22.528 22.9481 21.6979 22.6626 21.1011 22.0916C20.5043 21.5206 20.2054 20.7116 20.2046 19.6647C20.2046 18.5532 20.6196 17.7153 21.4497 17.1509C22.2798 16.5865 23.5428 16.2778 25.2387 16.2248L27.1064 16.1665V15.5917C27.1064 14.9032 26.9449 14.388 26.622 14.0462C26.2991 13.7044 25.7982 13.5327 25.1191 13.531C24.5773 13.5304 24.0387 13.6142 23.5229 13.7793C23.0213 13.9381 22.5308 14.1301 22.0549 14.3541L21.3078 12.7167C21.9181 12.4031 22.5663 12.169 23.2365 12.0203C23.8844 11.8664 24.5477 11.786 25.2138 11.7807C26.5909 11.7807 27.6306 12.0799 28.3328 12.6782C29.0351 13.2766 29.3858 14.215 29.385 15.4937V22.7532H27.7426ZM24.316 21.1941C25.1511 21.1941 25.8218 20.9619 26.3282 20.4977C26.8345 20.0334 27.0873 19.3821 27.0865 18.5437V17.609L25.6969 17.6673C24.6128 17.7054 23.8242 17.8854 23.3311 18.2073C22.8381 18.5293 22.5915 19.0217 22.5915 19.6846C22.5915 20.1654 22.7351 20.5378 23.0223 20.8018C23.3095 21.0658 23.7408 21.1966 24.316 21.1941Z" fill="white"/>
<path d="M34.1863 22.7533H31.8853V7.59106H34.1863V22.7533Z" fill="white"/>
<path d="M36.6069 9.12044C36.6069 8.71202 36.7202 8.39671 36.9444 8.17575C37.1685 7.95478 37.491 7.8443 37.9093 7.8443C38.3277 7.8443 38.629 7.95478 38.8544 8.17575C39.0798 8.39671 39.1918 8.71202 39.1918 9.12044C39.2013 9.28877 39.1762 9.45725 39.1182 9.61561C39.0602 9.77398 38.9704 9.9189 38.8544 10.0415C38.6294 10.2666 38.3144 10.3788 37.9093 10.378C37.4943 10.378 37.1726 10.2658 36.9444 10.0415C36.8283 9.9189 36.7386 9.77398 36.6805 9.61561C36.6225 9.45725 36.5975 9.28877 36.6069 9.12044ZM39.0449 22.7533H36.7439V11.9756H39.0449V22.7533Z" fill="white"/>
<path d="M47.1208 11.7807C48.4722 11.7807 49.5247 12.2682 50.2785 13.2431C51.0322 14.218 51.409 15.5855 51.409 17.3458C51.409 19.1119 51.0272 20.4873 50.2635 21.4722C49.4998 22.457 48.439 22.949 47.0809 22.9482C45.7113 22.9482 44.6475 22.4578 43.8897 21.4771H43.7328L43.3119 22.7533H41.5874V7.59106H43.8884V11.1911C43.8884 11.4584 43.8751 11.8548 43.8486 12.3803C43.822 12.9058 43.8025 13.2406 43.7901 13.3846H43.8884C44.6206 12.3153 45.698 11.7807 47.1208 11.7807ZM46.5231 13.6552C45.5967 13.6552 44.9294 13.9266 44.5209 14.4695C44.1125 15.0124 43.9021 15.9203 43.8897 17.1931V17.3495C43.8897 18.6621 44.0972 19.6138 44.5122 20.2047C44.9273 20.7956 45.6096 21.0894 46.5592 21.0861C47.3744 21.0861 47.9928 20.7646 48.4145 20.1215C48.8362 19.4785 49.0466 18.5495 49.0458 17.3346C49.0483 14.8817 48.2074 13.6552 46.5231 13.6552Z" fill="white"/>
<path d="M58.9535 11.7807C59.3377 11.7739 59.7216 11.8067 60.099 11.8787L59.8737 14.0127C59.54 13.9338 59.1981 13.8946 58.8551 13.896C57.9354 13.896 57.1883 14.1947 56.6139 14.7922C56.0395 15.3898 55.7535 16.166 55.756 17.1211V22.7532H53.46V11.9756H55.2617L55.5655 13.8761H55.6825C56.0181 13.259 56.5009 12.7337 57.0883 12.3467C57.6397 11.9773 58.2891 11.7802 58.9535 11.7807V11.7807Z" fill="white"/>
<path d="M66.1167 22.9481C64.4333 22.9481 63.1167 22.4594 62.1671 21.4821C61.2175 20.5047 60.7427 19.1582 60.7427 17.4426C60.7427 15.6824 61.183 14.2986 62.0638 13.2915C62.9445 12.2843 64.1552 11.7807 65.6958 11.7807C67.1252 11.7807 68.2546 12.2127 69.0838 13.0767C69.9131 13.9407 70.3281 15.1295 70.329 16.6432V17.8846H63.1072C63.1404 18.9315 63.4247 19.7355 63.9601 20.2966C64.4955 20.8577 65.2492 21.1386 66.2213 21.1395C66.8216 21.1437 67.4207 21.0834 68.008 20.9594C68.6215 20.8194 69.2193 20.6181 69.7923 20.3586V22.2207C69.2508 22.4799 68.6784 22.6697 68.089 22.7855C67.4382 22.9018 66.7778 22.9562 66.1167 22.9481V22.9481ZM65.6958 13.5137C64.9653 13.5137 64.3797 13.7441 63.9389 14.2051C63.4982 14.6661 63.2354 15.3385 63.1508 16.2224H68.0653C68.0529 15.3327 67.8375 14.6586 67.4191 14.2001C67.0007 13.7417 66.4276 13.5137 65.6996 13.5161L65.6958 13.5137Z" fill="white"/>
<path d="M87.4784 22.7532L87.1596 21.2337H87.0812C86.5466 21.9024 86.0133 22.3555 85.4812 22.5931C84.9491 22.8306 84.285 22.9489 83.489 22.9481C82.424 22.9481 81.5902 22.6754 80.9875 22.13C80.3849 21.5846 80.0827 20.8084 80.0811 19.8012C80.0811 17.6437 81.8143 16.5132 85.2807 16.4098L87.1011 16.3514V15.6885C87.1011 14.851 86.9201 14.2324 86.5582 13.8326C86.1963 13.4329 85.6152 13.2331 84.815 13.2331C83.921 13.2331 82.9092 13.5058 81.7794 14.0511L81.2814 12.8098C81.8328 12.516 82.4182 12.2904 83.0245 12.1382C83.6431 11.9755 84.2799 11.8921 84.9196 11.8899C86.198 11.8899 87.1459 12.1721 87.7635 12.7365C88.3811 13.3009 88.6895 14.2075 88.6887 15.4564V22.7445L87.4784 22.7532ZM83.8065 21.6136C84.8192 21.6136 85.614 21.3376 86.1909 20.7856C86.7678 20.2336 87.0584 19.4602 87.0625 18.4655V17.5034L85.4364 17.5717C84.1439 17.618 83.2121 17.8179 82.641 18.1713C82.0699 18.5246 81.7844 19.075 81.7844 19.8223C81.7844 20.4066 81.9624 20.8518 82.3186 21.158C82.6747 21.4642 83.1706 21.6161 83.8065 21.6136V21.6136Z" fill="#373A36"/>
<path d="M92.835 12.0737V19.0018C92.835 19.8716 93.0338 20.5213 93.4314 20.9508C93.829 21.3803 94.4516 21.5946 95.2991 21.5938C96.4222 21.5938 97.2432 21.2884 97.762 20.6777C98.2808 20.0669 98.5402 19.0697 98.5402 17.6859V12.0737H100.165V22.7495H98.8266L98.5913 21.317H98.5028C98.1696 21.8461 97.6895 22.2674 97.1207 22.5298C96.4865 22.818 95.7956 22.961 95.0986 22.9481C93.7937 22.9481 92.8163 22.6399 92.1664 22.0233C91.5164 21.4068 91.1914 20.419 91.1914 19.0602V12.0737H92.835Z" fill="#373A36"/>
<path d="M110.235 21.3207H110.146C109.399 22.4057 108.276 22.9481 106.778 22.9481C105.375 22.9481 104.284 22.4706 103.503 21.5156C102.723 20.5606 102.333 19.2029 102.333 17.4426C102.333 15.6823 102.725 14.3168 103.508 13.3461C104.292 12.3753 105.382 11.8883 106.778 11.885C108.234 11.885 109.351 12.4109 110.128 13.4628H110.252L110.184 12.6931L110.144 11.9483V7.60345H111.77V22.7532H110.448L110.235 21.3207ZM106.984 21.6C108.094 21.6 108.899 21.2996 109.398 20.6988C109.897 20.0979 110.146 19.1284 110.145 17.7902V17.4488C110.145 15.936 109.892 14.856 109.387 14.2088C108.881 13.5617 108.073 13.2385 106.964 13.2393C106.01 13.2393 105.28 13.608 104.775 14.3454C104.269 15.0828 104.016 16.1239 104.016 17.4687C104.016 18.8334 104.268 19.8629 104.77 20.5572C105.272 21.2516 106.01 21.5992 106.984 21.6Z" fill="#373A36"/>
<path d="M114.304 9.17875C114.304 8.80882 114.395 8.53779 114.578 8.36565C114.764 8.19781 115.007 8.10492 115.258 8.10492C115.509 8.10492 115.752 8.19781 115.939 8.36565C116.128 8.5411 116.222 8.81048 116.222 9.17379C116.222 9.53875 116.128 9.80938 115.939 9.98813C115.849 10.075 115.743 10.1434 115.627 10.1894C115.511 10.2354 115.387 10.2581 115.262 10.2563C115.136 10.2599 115.01 10.2379 114.893 10.1919C114.775 10.1458 114.668 10.0765 114.578 9.98813C114.398 9.81434 114.304 9.54372 114.304 9.17875ZM116.066 22.7532H114.447V12.0774H116.066V22.7532Z" fill="#373A36"/>
<path d="M128 17.4041C128 19.1421 127.559 20.5014 126.678 21.4821C125.796 22.4627 124.579 22.9514 123.026 22.9481C122.128 22.9645 121.244 22.732 120.471 22.2765C119.717 21.8177 119.117 21.1458 118.747 20.3462C118.343 19.5087 118.141 18.528 118.141 17.4041C118.141 15.6662 118.578 14.3098 119.452 13.3349C120.326 12.36 121.54 11.8746 123.094 11.8787C124.596 11.8787 125.789 12.3753 126.673 13.3684C127.557 14.3615 127.999 15.7067 128 17.4041ZM119.825 17.4041C119.825 18.7688 120.099 19.8083 120.648 20.5225C121.196 21.2367 122.002 21.5938 123.066 21.5938C124.129 21.5938 124.937 21.2383 125.489 20.5274C126.041 19.8165 126.317 18.7754 126.317 17.4041C126.317 16.0461 126.041 15.0145 125.489 14.3094C124.937 13.6043 124.122 13.2521 123.046 13.253C121.982 13.253 121.18 13.6005 120.638 14.2957C120.096 14.9909 119.825 16.027 119.825 17.4041Z" fill="#373A36"/>
</g>
<defs>
<clipPath id="clip0">
<rect width="128" height="36" fill="white"/>
</clipPath>
</defs>
</svg>
